<svg width="101" height="81" viewBox="0 0 101 81" fill="none" xmlns="http://www.w3.org/2000/svg">
<g clip-path="url(#clip0_304_11139)">
<path fill-rule="evenodd" clip-rule="evenodd" d="M21.4267 0.764404C20.0978 0.793847 18.788 1.08796 17.574 1.62954C16.3601 2.17112 15.2662 2.9493 14.3566 3.91858C13.4469 4.88786 12.7396 6.02878 12.276 7.27462C11.8124 8.52047 11.6019 9.84624 11.6567 11.1744C11.8367 16.3744 11.6567 23.1144 9.90672 28.6144C8.15672 34.1144 5.35672 37.6144 0.656723 38.0644V43.1244C5.35672 43.5744 8.23672 47.0644 9.93672 52.5744C11.6367 58.0844 11.8667 64.8144 11.6567 70.0144C11.6019 71.3401 11.8115 72.6635 12.2732 73.9074C12.7349 75.1513 13.4395 76.2909 14.346 77.2597C15.2526 78.2286 16.3428 79.0074 17.5533 79.5507C18.7638 80.094 20.0703 80.391 21.3967 80.4244H79.8967C81.2248 80.3937 82.5335 80.0986 83.7463 79.5564C84.9591 79.0143 86.0518 78.2359 86.9604 77.2667C87.869 76.2976 88.5754 75.1571 89.0384 73.9119C89.5013 72.6667 89.7115 71.3418 89.6567 70.0144C89.4667 64.8144 89.6567 58.0744 91.4067 52.5744C93.1567 47.0744 95.9767 43.5744 100.677 43.1244V38.0644C95.9767 37.6144 93.1067 34.1244 91.4067 28.6144C89.7067 23.1044 89.4467 16.3744 89.6567 11.1744C89.7115 9.84706 89.5013 8.5221 89.0384 7.2769C88.5754 6.0317 87.869 4.89122 86.9604 3.92208C86.0518 2.95294 84.9591 2.17455 83.7463 1.63239C82.5335 1.09023 81.2248 0.795156 79.8967 0.764404L21.4267 0.764404ZM68.4267 49.7644C68.4267 57.2144 62.8567 61.7644 53.6267 61.7644H37.9467C37.4967 61.7618 37.0658 61.5818 36.7475 61.2636C36.4293 60.9453 36.2493 60.5145 36.2467 60.0644V21.0644C36.2493 20.6143 36.4293 20.1835 36.7475 19.8652C37.0658 19.547 37.4967 19.367 37.9467 19.3644H53.5667C61.2667 19.3644 66.3167 23.5344 66.3167 29.9444C66.2961 32.1389 65.514 34.258 64.1041 35.9397C62.6942 37.6215 60.7439 38.7613 58.5867 39.1644V39.3944C64.4867 40.0444 68.4567 44.1244 68.4567 49.7644H68.4267ZM51.9467 24.7644H42.9467V37.4344H50.4967C56.3267 37.4344 59.4967 35.0844 59.4967 30.8944C59.5867 26.9544 56.8167 24.7644 51.9467 24.7644ZM42.9467 42.4344V56.4344H52.2367C58.3067 56.4344 61.5267 54.0044 61.5267 49.4344C61.5267 44.8644 58.2167 42.5044 51.8467 42.5044L42.9467 42.4344Z" fill="#e53939"/>
</g>
<defs>
<clipPath id="clip0_304_11139">
<rect width="100" height="79.66" fill="white" transform="translate(0.656723 0.764404)"/>
</clipPath>
</defs>
</svg>
