<svg width="90" height="100" viewBox="0 0 90 100" fill="none" xmlns="http://www.w3.org/2000/svg">
<g clip-path="url(#clip0_304_13204)">
<path d="M8.90503 90L0.905029 0H89.095L81.095 90L44.905 100" fill="#e53939"/>
<path d="M44.995 92.3399V7.38989H81.045L74.165 84.1999" fill="#f14a4a"/>
<path d="M17.285 18.3999H44.995V29.3999H29.395L30.395 40.6999H44.995V51.6999H20.305L17.285 18.3999ZM20.785 57.2899H31.905L32.685 66.1199L45.025 69.4199V80.9399L22.345 74.6199" fill="#EBEBEB"/>
<path d="M72.615 18.3999H44.905V29.3999H71.585L72.615 18.3999ZM70.615 40.7399H44.905V51.7399H58.565L57.275 66.1199L44.905 69.4199V80.8899L67.515 74.6199" fill="white"/>
</g>
<defs>
<clipPath id="clip0_304_13204">
<rect width="88.19" height="100" fill="white" transform="translate(0.905029)"/>
</clipPath>
</defs>
</svg>
