<svg width="100" height="100" viewBox="0 0 100 100" fill="none" xmlns="http://www.w3.org/2000/svg">
<g clip-path="url(#clip0_304_8470)">
<mask id="mask0_304_8470" style="mask-type:luminance" maskUnits="userSpaceOnUse" x="0" y="0" width="100" height="100">
<path d="M100 0H0V100H100V0Z" fill="white"/>
</mask>
<g mask="url(#mask0_304_8470)">
<path d="M50 100C59.8891 100 69.556 97.0676 77.7785 91.5735C86.0009 86.0794 92.4096 78.2705 96.194 69.1342C99.9783 59.9979 100.968 49.9445 99.0392 40.2455C97.11 30.5464 92.3479 21.6373 85.3553 14.6447C78.3627 7.65206 69.4536 2.89002 59.7545 0.960758C50.0555 -0.968502 40.0021 0.0216641 30.8658 3.80604C21.7295 7.59043 13.9206 13.9991 8.42652 22.2215C2.93245 30.444 0 40.1109 0 50C0 63.2608 5.26784 75.9785 14.6447 85.3553C24.0215 94.7322 36.7392 100 50 100Z" fill="#e53939"/>
<path d="M83.06 87.51L38.41 30H30V70H36.73V38.55L77.78 91.55C79.6264 90.3201 81.3901 88.9706 83.06 87.51Z" fill="url(#paint0_linear_304_8470)"/>
<path d="M70.56 30H63.89V70H70.56V30Z" fill="url(#paint1_linear_304_8470)"/>
</g>
</g>
<defs>
<linearGradient id="paint0_linear_304_8470" x1="51.79" y1="71.79" x2="71.52" y2="96.24" gradientUnits="userSpaceOnUse">
<stop stop-color="white"/>
<stop offset="1" stop-color="white" stop-opacity="0"/>
</linearGradient>
<linearGradient id="paint1_linear_304_8470" x1="67.3" y1="29.99" x2="67.19" y2="59.37" gradientUnits="userSpaceOnUse">
<stop stop-color="white"/>
<stop offset="1" stop-color="white" stop-opacity="0"/>
</linearGradient>
<clipPath id="clip0_304_8470">
<rect width="100" height="100" fill="white"/>
</clipPath>
</defs>
</svg>
