<svg width="101" height="101" viewBox="0 0 101 101" fill="none" xmlns="http://www.w3.org/2000/svg">
<g clip-path="url(#clip0_304_13574)">
<path d="M91.5194 0.891235H9.65936C7.25384 0.891235 4.94685 1.84682 3.2459 3.54778C1.54494 5.24873 0.589355 7.55572 0.589355 9.96124L0.589355 91.8212C0.589355 94.2267 1.54494 96.5337 3.2459 98.2347C4.94685 99.9357 7.25384 100.891 9.65936 100.891H91.5194C93.9249 100.891 96.2319 99.9357 97.9328 98.2347C99.6338 96.5337 100.589 94.2267 100.589 91.8212V9.96124C100.589 7.55572 99.6338 5.24873 97.9328 3.54778C96.2319 1.84682 93.9249 0.891235 91.5194 0.891235Z" fill="transparent"/>
<path d="M34.0093 32.3513C35.1911 32.3296 36.3401 31.9594 37.3123 31.2871C38.2844 30.6147 39.0363 29.6703 39.4736 28.5722C39.9109 27.4741 40.0141 26.2713 39.7703 25.1148C39.5266 23.9582 38.9466 22.8994 38.1033 22.0713C37.2599 21.2431 36.1908 20.6825 35.03 20.4598C33.8692 20.2371 32.6685 20.3621 31.5786 20.8193C30.4886 21.2765 29.5579 22.0454 28.9034 23.0296C28.2488 24.0138 27.8995 25.1693 27.8993 26.3513C27.8992 27.1486 28.058 27.9379 28.3664 28.6731C28.6747 29.4083 29.1266 30.0747 29.6954 30.6333C30.2643 31.1919 30.9388 31.6316 31.6795 31.9265C32.4201 32.2215 33.2122 32.3659 34.0093 32.3513ZM21.3393 64.5913C20.9923 66.0733 20.8112 67.5893 20.7993 69.1113C20.7993 74.4113 23.6793 77.9313 29.7993 77.9313C34.8593 77.9313 38.9693 74.9313 41.9293 70.0613L40.1193 77.3113H50.1693L55.9193 54.2513C57.3593 48.4113 60.1493 45.3813 64.3693 45.3813C67.6893 45.3813 69.7593 47.4513 69.7593 50.8613C69.775 51.9546 69.6232 53.0439 69.3093 54.0913L66.3093 64.6913C65.8945 66.1517 65.6858 67.663 65.6893 69.1813C65.6893 74.1813 68.6894 77.9013 74.8493 77.9013C80.1493 77.9013 84.3694 74.4813 86.7094 66.3113L82.7094 64.7813C80.7094 70.2613 79.0294 71.2513 77.7094 71.2513C76.3894 71.2513 75.6493 70.3513 75.6493 68.5613C75.6877 67.6167 75.8388 66.68 76.0993 65.7713L78.9693 55.4413C79.6217 53.3187 79.9586 51.1118 79.9693 48.8913C79.9693 41.1713 75.2994 37.1313 69.6394 37.1313C64.3394 37.1313 58.9493 41.9213 56.2493 46.9513L58.2493 37.9513H42.8993L40.7393 45.8913H47.9293L43.4993 63.5913C40.0293 71.3213 33.6393 71.4413 32.8393 71.2613C31.5293 70.9613 30.6893 70.4713 30.6893 68.7613C30.7296 67.3673 30.9412 65.9836 31.3193 64.6413L38.0493 37.8913H20.9793L18.8293 45.8913H25.9193L21.3393 64.5913Z" fill="white"/>
</g>
<defs>
<clipPath id="clip0_304_13574">
<rect width="100" height="100" fill="none" transform="translate(0.589355 0.891235)"/>
</clipPath>
</defs>
</svg>
